<?xml version="1.0" encoding="UTF-8"?>
<svg width="470px" height="98px" viewBox="0 0 470 98" version="1.1" xmlns="http://www.w3.org/2000/svg" xmlns:xlink="http://www.w3.org/1999/xlink">
    <!-- Generator: Sketch 46.2 (44496) - http://www.bohemiancoding.com/sketch -->
    <title>logo_ads_mundo</title>
    <desc>Created with Sketch.</desc>
    <defs>
        <polygon id="path-1" points="96.7145337 0.290389507 0.202911774 0.290389507 0.202911774 58.2795608 96.7145337 58.2795608"></polygon>
        <polygon id="path-3" points="0.23275257 2.75437202 26.1901456 2.75437202 26.1901456 0.93318124 0.23275257 0.93318124"></polygon>
        <path d="M8.05691268,0.459406645 C3.09082812,8.19386604 0.202364842,17.445254 0.202364842,27.388071 C0.202364842,39.2866561 4.34743804,50.2037481 11.243676,58.7131796 L85.478164,58.7131796 C92.371911,50.2037481 96.5143566,39.2866561 96.5143566,27.388071 C96.5143566,17.445254 93.6277243,8.19386604 88.663694,0.459406645 L8.05691268,0.459406645 L8.05691268,0.459406645 Z" id="path-5"></path>
        <path d="M56.3726161,0.336541353 C57.3404097,1.89129199 58.5858245,3.68806166 59.1936,4.09473684 C60.1618286,4.71503759 62.4850286,7.24586466 63.5574857,7.98746867 C64.6134857,8.74010025 71.4212571,11.9932331 73.3275429,13.0353383 C75.2530286,14.0967419 77.8038857,16.4290727 80.0338286,16.8398496 C82.272,17.264411 85.1410286,18.620802 86.9430857,19.1446115 C88.3776,19.5746867 92.5988571,21.3887218 95.9341714,22.9022556 C94.7101034,29.2943479 92.2364451,35.2422508 88.7792659,40.4771958 L8.23166655,40.4771958 C3.34108246,33.0746132 0.418585059,24.2473936 0.213942857,14.7556391 C1.23702857,14.1739348 2.81142857,13.2917293 3.48891429,13.1428571 C4.44068571,12.941604 4.64091429,12.941604 5.38971429,12.6218045 C6.12754286,12.3075188 11.9808,9.25012531 12.7213714,8.74010025 C13.4811429,8.19423559 14.2162286,7.67869674 14.7648,7.36441103 C15.2804571,7.05288221 16.9782857,6.49598997 17.7325714,6.29749373 C18.4676571,6.08796992 19.4221714,5.97769424 20.0694857,5.7764411 C20.7085714,5.56691729 21.5561143,4.82531328 22.2006857,4.82531328 C22.8425143,4.82531328 23.6790857,4.52481203 23.6790857,4.52481203 C23.6790857,4.52481203 26.7565714,3.24837093 27.8153143,2.50401003 C28.8877714,1.76240602 30.4841143,1.44536341 31.3344,1.44536341 C32.1929143,1.44536341 32.6016,1.3406015 33.0349714,1.03458647 C33.2185026,0.901291876 33.5032421,0.629279234 33.8013674,0.336541353 L56.3726161,0.336541353 L56.3726161,0.336541353 Z" id="path-7"></path>
        <path d="M7.56204883,2.45441539 C7.31990425,2.1590926 7.03688761,1.88153883 6.71094026,1.60451128 C5.97311169,0.964912281 5.86888312,0.964912281 5.54796883,0.551378446 C5.49036883,0.479699248 5.39985455,0.449373434 5.29562597,0.449373434 C4.80465455,0.449373434 3.94614026,1.08070175 3.94614026,1.08070175 C3.94614026,1.08070175 3.21105455,2.01804511 2.76671169,2.23859649 C2.35802597,2.4481203 1.59276883,3.40200501 1.18134026,3.72180451 C1.07697071,3.80133928 0.959028907,4.03025055 0.837556813,4.33741855 L7.56204883,4.33741855 L7.56204883,2.45441539 L7.56204883,2.45441539 Z" id="path-9"></path>
        <polygon id="path-11" points="0.392834138 0.469459589 31.3721178 6.46365405 31.3721178 6.46365405 0.392834138 0.469459589"></polygon>
        <polygon id="path-13" points="0.197392327 0.1978993 65.4623188 12.826037 0.197392327 0.1978993"></polygon>
        <polygon id="path-15" points="1.15550725 0.617029522 0.21352657 0.434765292 1.15550725 0.617029522"></polygon>
    </defs>
    <g id="V2" stroke="none" stroke-width="1" fill="none" fill-rule="evenodd">
        <g id="home_v3" transform="translate(-792.000000, -15.000000)">
            <g id="logo_ads_mundo" transform="translate(792.000000, 15.000000)">
                <g id="Group-13" transform="translate(6.000000, 0.000000)">
                    <g id="Group-3">
                        <g id="Fill-1-Clipped">
                            <mask id="mask-2" fill="white">
                                <use xlink:href="#path-1"></use>
                            </mask>
                            <g id="path-1"></g>
                            <path d="M95.8695237,58.2795608 C96.3863745,55.4480664 96.7145337,51.8646284 96.7145337,48.892661 C96.7145337,22.0485513 75.1052501,0.289012321 48.4532534,0.289012321 C21.7985221,0.289012321 0.202911774,22.0485513 0.202911774,48.892661 C0.202911774,52.0849781 0.503724378,55.2029273 1.08894163,58.2244734 L95.8695237,58.2795608 Z" id="Fill-1" fill="#F8B133" fill-rule="nonzero" mask="url(#mask-2)"></path>
                        </g>
                    </g>
                    <g id="Group-6" transform="translate(35.263682, 94.947138)">
                        <g id="Fill-4-Clipped" transform="translate(-0.000000, 0.000000)">
                            <mask id="mask-4" fill="white">
                                <use xlink:href="#path-3"></use>
                            </mask>
                            <g id="path-3"></g>
                            <path d="M26.1901456,0.93318124 C22.0416663,2.12582432 17.6115171,2.75382114 13.12394,2.75382114 C8.65824013,2.75382114 4.33200796,2.10929809 0.23275257,0.93318124 L26.1901456,0.93318124 Z" id="Fill-4" fill="#00A09A" fill-rule="nonzero" mask="url(#mask-4)"></path>
                        </g>
                    </g>
                    <path d="M17.2212481,85.6133979 C16.5813376,85.0487516 15.903142,84.4069829 15.3015167,83.8010211 L81.6443692,83.8010211 C81.0427439,84.4042285 80.3536096,85.0487516 79.7273725,85.6133979 L17.2212481,85.6133979 Z" id="Fill-7" fill="#00A09A" fill-rule="nonzero"></path>
                    <path d="M22.3408051,89.658744 C21.4903259,89.0803259 20.6453159,88.4743641 19.8303872,87.8491216 L77.0996376,87.8491216 C76.2901783,88.4798728 75.4670456,89.0665541 74.5946891,89.658744 L22.3408051,89.658744 Z" id="Fill-9" fill="#00A09A" fill-rule="nonzero"></path>
                    <path d="M29.3642325,93.6021785 C28.202002,93.0871109 27.1136073,92.5307277 25.981458,91.9192572 L70.9255957,91.9192572 C69.8125891,92.5307277 68.718725,93.0871109 67.5482905,93.6021785 L29.3642325,93.6021785 Z" id="Fill-11" fill="#00A09A" fill-rule="nonzero"></path>
                </g>
                <g id="Group-16" transform="translate(6.000000, 22.000000)">
                    <g id="Fill-14-Clipped">
                        <mask id="mask-6" fill="white">
                            <use xlink:href="#path-5"></use>
                        </mask>
                        <g id="path-5"></g>
                        <path d="M-57.3996937,56.1121596 C-56.1226075,55.3662173 -52.6167733,53.0557517 -51.2467086,52.6310953 C-49.8657053,52.2120266 -43.6771697,50.0244878 -21.0642658,38.145286 C-20.3778662,37.7876807 -15.9395129,36.7428027 -13.9705577,34.6530466 C-13.6423985,34.298235 -9.78926252,32.2867051 -8.0801,31.979388 C-6.39281476,31.6692772 -4.59887778,30.4819157 -3.94529403,30.1690111 C-3.32179154,29.8477251 -1.0875743,29.1995654 -0.67190597,28.9732683 C-0.245299005,28.7637339 2.51944229,27.0539335 3.47930796,26.8360177 C4.42550033,26.632071 4.62786517,26.632071 5.37442736,26.3079911 C6.11005091,25.9922927 11.9458154,22.8939778 12.6841736,22.3771264 C13.4389398,21.8239557 14.1745633,21.2987228 14.7214954,20.9830244 C15.2356114,20.6645322 16.928366,20.10298 17.6803975,19.9018271 C18.4132864,19.6894989 19.3622134,19.5777472 20.0103279,19.3738004 C20.644769,19.1586785 21.4925136,18.4099424 22.1351587,18.4099424 C22.7750692,18.4099424 23.6091405,18.1054191 23.6091405,18.1054191 C23.6091405,18.1054191 26.6746944,16.8118936 27.7330078,16.0575698 C28.8022599,15.3060399 30.393832,14.9819601 31.2415766,14.9819601 C32.0975252,14.9819601 32.5049896,14.8785898 32.9370658,14.5684789 C33.3582035,14.2555743 34.3262731,13.1883459 34.7419415,12.8530909 C35.1712831,12.5373925 36.3389829,11.1404967 37.0773411,10.6068825 C37.8129647,10.0732683 37.7117823,10.1738448 38.5649962,9.86373392 C39.4045368,9.54524169 39.7354307,9.74639468 40.7691322,9.02280266 C41.8438536,8.26289135 42.1528701,7.93601774 42.3880509,7.40519734 C42.5904158,6.86878936 43.2303262,4.10014191 43.6487292,3.77606208 C44.0616629,3.44918847 44.8191637,2.48533038 45.226628,2.27300222 C45.669643,2.0467051 46.4052665,1.09960976 46.4052665,1.09960976 C46.4052665,1.09960976 47.6686794,0.155308204 48.002308,0.560407982 C48.3222632,0.98227051 48.4261803,0.98227051 49.1618038,1.63043016 C49.9028967,2.27300222 50.4252167,2.91836807 50.745172,3.77606208 C51.0651272,4.6337561 52.1316446,7.2850643 52.5445783,8.04497561 C52.9684506,8.79091796 54.461575,10.492337 54.983895,11.6908736 C55.5171537,12.8530909 58.0603876,17.0186341 59.0147839,17.6695876 C59.9828536,18.2981907 62.2991106,20.8628914 63.3683627,21.6144213 C64.4212068,22.3771264 71.208633,25.6710067 73.1092217,26.7270599 C75.0289531,27.8054634 77.5694522,30.1690111 79.7927308,30.5824922 C82.0242134,31.0155299 84.8846678,32.3900754 86.6840741,32.918102 C88.4944191,33.4712727 94.7431172,36.2650643 98.0329133,37.8519379 C101.319975,39.4471929 107.049087,41.9057295 108.946941,43.0735344 C110.861203,44.2636896 112.652406,45.0068381 115.624981,46.2891885 C118.581149,47.5715388 119.026898,48.1107406 120.18366,48.5409845 C121.348625,48.9600532 124.014918,50.1222705 124.84899,50.6726475 C125.696734,51.2006741 127.176185,52.1561508 128.765023,52.7009401 C130.351126,53.2289667 130.146026,53.6564169 133.233457,53.9916718 C136.293542,54.3045765 136.515049,55.4807627 137.567893,55.8970377 C138.637145,56.3384568 140.647121,56.6653304 141.177645,56.9726475 C141.69723,57.2799645 143.925978,57.8247539 143.925978,57.8247539 L145.252288,58.7131796 L-15.6687816,58.7131796 C-15.6687816,58.7131796 -58.6822493,56.872071 -57.3996937,56.1121596" id="Fill-14" fill="#006561" fill-rule="nonzero" mask="url(#mask-6)"></path>
                    </g>
                </g>
                <g id="Group-27" transform="translate(6.000000, 22.000000)">
                    <g id="Group-19" transform="translate(0.000000, 13.337093)">
                        <g id="Fill-17-Clipped" transform="translate(0.000000, -0.000000)">
                            <mask id="mask-8" fill="white">
                                <use xlink:href="#path-7"></use>
                            </mask>
                            <g id="path-7"></g>
                            <path d="M-35.3153829,27.5084712 C-35.3153829,27.5084712 -33.7245257,27.8420551 -32.6026971,28.0047118 C-31.49184,28.1342857 -26.8701257,27.3651128 -30.8554971,28.3162406 C-34.8408686,29.253584 -35.7981257,29.5706266 -35.7981257,29.5706266 C-35.7981257,29.5706266 -34.3636114,31.6217544 -35.1617829,31.9415539 C-35.9489829,32.2585965 -36.6045257,32.2585965 -37.55904,32.7355388 C-38.4943543,33.2124812 -37.0653257,30.1964411 -39.45984,30.9904261 C-41.8516114,31.7816541 -45.0497829,31.7816541 -42.64704,33.2124812 C-40.2634971,34.6405514 -38.3407543,34.7921805 -37.0653257,34.3235088 C-35.7981257,33.8382957 -34.8408686,32.2585965 -33.7245257,32.1124812 C-32.6026971,31.9415539 -32.1364114,31.6217544 -30.8554971,31.3129825 C-29.5773257,30.9904261 -27.9892114,30.3673684 -26.5464686,30.1964411 C-25.11744,30.0558396 -25.2737829,29.4134837 -23.6829257,29.4134837 C-22.0893257,29.4134837 -17.6184686,28.0047118 -18.8993829,28.7876692 C-20.1665829,29.5706266 -24.6346971,29.253584 -20.4874971,30.1964411 C-16.3402971,31.1530827 -15.8575543,30.1964411 -14.5930971,30.5272682 C-13.3149257,30.8415539 -12.5249829,31.9415539 -11.3921829,31.1530827 C-10.2840686,30.3673684 -10.9204114,29.8959398 -8.99766857,29.1102256 C-7.09412571,28.3162406 -6.93229714,27.3651128 -4.05504,26.2540852 C-1.19972571,25.1485714 -0.744411429,25.0024561 0.212845714,24.8342857 C1.15913143,24.6854135 0.884845714,26.5683709 0.248502857,28.0047118 C-0.396068571,29.4134837 -2.15424,31.7816541 -2.15424,31.7816541 C-2.15424,31.7816541 -5.32772571,31.7816541 -4.86692571,33.0525815 C-4.37321143,34.3235088 -2.30784,34.6405514 -1.35058286,34.4778947 C-0.396068571,34.3235088 -0.557897143,33.3778947 0.723017143,33.2124812 C1.99844571,33.0525815 3.74564571,32.9064662 2.63753143,34.0092231 C1.50747429,35.1147368 -0.396068571,34.3235088 1.35936,35.5778947 C3.11478857,36.8543358 3.90747429,37.6345363 4.38198857,36.3718797 C4.87296,35.1147368 3.90747429,34.957594 5.33924571,34.6405514 C6.77650286,34.3235088 6.47204571,34.0092231 8.05741714,33.5212531 C9.65376,33.0525815 10.1173029,33.3778947 10.92096,32.5728822 C11.72736,31.7816541 13.4800457,30.3673684 12.3554743,30.3673684 C11.2555886,30.3673684 11.0800457,29.7305263 9.02016,30.3673684 C6.94381714,30.9904261 4.23387429,34.0092231 6.47204571,30.9904261 C8.69376,28.0047118 9.02016,27.0425564 10.2928457,26.5683709 C11.5682743,26.0914286 11.5682743,25.3084712 12.3554743,25.774386 C13.16736,26.2540852 14.5991314,26.7227569 15.7099886,26.0914286 C16.8318171,25.4766416 17.7863314,24.6606015 18.90816,24.2002005 C20.0272457,23.7342857 21.9335314,22.7831579 21.9335314,22.7831579 L24.0181029,20.8891729 C24.0181029,20.8891729 25.4443886,19.1440602 25.9189029,20.4122306 C26.39616,21.6693734 26.8789029,21.346817 27.6853029,23.2601003 C28.4560457,25.1485714 29.58336,26.413985 29.7506743,27.5084712 C29.9042743,28.6002005 29.7506743,30.684411 30.0770743,31.6217544 C30.38976,32.5728822 30.0770743,33.8382957 31.02336,34.7921805 C31.96416,35.7350376 33.1024457,35.7350376 33.2615314,36.3718797 C33.42336,36.9976942 33.2615314,37.3202506 34.2133029,38.2603509 C35.1650743,39.2280201 36.4487314,40.1653634 37.2331886,40.0109774 C38.0423314,39.8565915 37.4087314,40.0109774 38.5141029,38.7400501 C39.6277029,37.4773935 38.9968457,37.4773935 40.58496,36.8543358 C42.2032457,36.2285213 39.9650743,36.0686216 38.8405029,36.0686216 C37.7214171,36.0686216 36.6187886,35.5778947 36.1195886,35.5778947 C35.6533029,35.5778947 35.3323886,35.4290226 34.6933029,34.957594 C34.0624457,34.4778947 33.2615314,33.5212531 33.2615314,32.5728822 C33.2615314,31.6217544 33.42336,30.3673684 33.42336,30.3673684 C33.42336,30.3673684 31.8187886,29.4134837 33.2615314,28.6002005 C34.6933029,27.8420551 34.5342171,28.6002005 35.6533029,27.0425564 C36.7586743,25.4766416 37.5595886,26.2540852 37.2331886,27.1996992 C36.91776,28.1342857 36.1195886,29.253584 35.9742171,30.0558396 C35.8096457,30.8415539 35.0114743,32.1124812 36.4487314,31.3129825 C37.8805029,30.5272682 37.8805029,29.8959398 38.8405029,28.7876692 C39.7950171,27.6793985 39.1586743,25.9453133 40.4341029,26.2540852 C41.7122743,26.5683709 43.1467886,27.1996992 42.5159314,28.459599 C41.8631314,29.7305263 41.5559314,29.8959398 41.5559314,30.684411 C41.5559314,31.4673684 42.5159314,31.1530827 42.8258743,32.4267669 C43.1467886,33.6866667 41.3995886,34.3235088 43.1467886,34.4778947 C44.8939886,34.6405514 44.2576457,34.1580952 45.6976457,33.3778947 C47.1349029,32.5728822 47.2885029,31.9415539 48.0811886,30.3673684 C48.8903314,28.7876692 49.2194743,27.1996992 49.2194743,27.1996992 C49.2194743,27.1996992 49.5349029,23.7342857 50.1602743,23.7342857 C50.7938743,23.7342857 51.9266743,23.4144862 51.7566171,24.6606015 C51.5975314,25.9453133 51.2848457,26.413985 51.12576,27.6793985 C50.9611886,28.9420551 50.9611886,29.8959398 51.4357029,30.9904261 C51.9266743,32.1124812 51.9266743,32.1124812 52.2366171,33.3778947 C52.5520457,34.6405514 52.06656,35.1147368 52.5520457,35.7350376 C53.0347886,36.3718797 53.0347886,37.3202506 53.3474743,35.2691228 C53.6711314,33.2124812 53.6711314,32.5728822 53.8302171,31.3129825 C53.9893029,30.0558396 54.1538743,28.1342857 54.7984457,27.8420551 C55.4128457,27.5084712 56.3810743,26.8909273 55.9038171,28.1342857 C55.4128457,29.4134837 55.5829029,30.3673684 55.5829029,30.3673684 C55.5829029,30.3673684 58.46016,26.8909273 57.8155886,28.7876692 C57.19296,30.684411 54.7984457,31.4673684 56.3810743,31.4673684 C57.9829029,31.4673684 58.2928457,30.5272682 59.2528457,29.5706266 C60.2128457,28.6002005 60.8574171,27.5084712 61.3182171,26.8909273 C61.8091886,26.2540852 62.2864457,25.1485714 63.0763886,24.6606015 C63.87456,24.2002005 64.8427886,23.086416 65.6190171,22.9182456 C66.4363886,22.7831579 65.9509029,21.8265163 67.5445029,23.4144862 C69.1518171,24.9776441 69.7826743,25.3084712 70.24896,26.8909273 C70.7426743,28.459599 71.6999314,30.0558396 72.4871314,30.9904261 C73.2907886,31.9415539 74.08896,33.0525815 75.5179886,34.0092231 C76.9744457,34.957594 78.0798171,36.5317794 79.5061029,37.4773935 C80.9543314,38.4174937 77.5888457,33.6866667 76.3106743,32.2585965 C75.04896,30.8415539 73.6144457,28.0047118 73.6144457,28.0047118 C75.3643886,29.253584 76.3106743,28.7876692 78.0798171,29.7305263 C79.8270171,30.684411 79.34976,29.8959398 81.2560457,30.8415539 C83.1733029,31.7816541 83.0224457,31.1530827 84.3061029,32.7355388 C85.5623314,34.3235088 86.0533029,34.3235088 87.3314743,35.1147368 C88.5822171,35.8949373 88.4450743,35.8949373 89.5559314,36.3718797 C90.6722743,36.8543358 93.1792457,38.3678697 93.0174171,35.8370426 C92.8555886,33.3144862 93.5440457,32.5866667 94.6631314,32.7355388 C95.78496,32.9009524 95.78496,32.5728822 96.4075886,32.5728822 C97.0494171,32.5728822 98.3275886,33.5212531 99.2875886,33.5212531 C100.23936,33.5212531 98.47296,32.2585965 101.67936,32.7355388 C104.872046,33.2124812 104.562103,32.4267669 105.988389,33.5212531 C107.417417,34.6405514 105.343817,34.3235088 109.01376,35.2691228 C112.68096,36.2285213 112.840046,36.2285213 113.646446,36.3718797 C114.441874,36.5317794 115.71456,36.3718797 116.819931,37.1631078 C117.939017,37.9515789 119.384503,37.4773935 119.856274,38.2603509 C120.344503,39.0488221 121.614446,39.8565915 122.736274,40.0109774 C123.847131,40.1653634 123.52896,39.8565915 125.435246,40.1653634 C127.360731,40.4686216 127.360731,40.3225063 129.434331,40.4686216 C131.502446,40.6423058 132.772389,38.1197494 132.772389,38.1197494 C132.772389,38.1197494 69.6126171,7.76360902 68.19456,6.82350877 C66.7573029,5.8558396 64.3655314,4.59869674 63.2546743,4.12451128 C62.1246171,3.65032581 56.5374171,0.65358396 55.0946743,0.499197995 C53.6711314,0.336541353 51.4357029,0.336541353 51.4357029,0.336541353 C51.4357029,0.336541353 49.2194743,0.98716792 49.9984457,1.59368421 C50.7938743,2.2360401 51.12576,3.17614035 51.12576,3.17614035 C51.12576,3.17614035 52.3984457,4.12451128 52.2366171,4.76411028 C52.06656,5.3954386 51.7566171,5.3954386 50.7938743,5.8558396 C49.8338743,6.33553885 48.8903314,6.33553885 48.8903314,6.95859649 C48.8903314,7.60370927 47.9303314,8.4114787 46.9867886,8.09443609 C46.0075886,7.76360902 45.8759314,6.82350877 45.8759314,6.82350877 C45.8759314,6.82350877 45.3712457,5.70145363 44.4194743,5.0756391 C43.4594743,4.44155388 43.7831314,3.17614035 42.3486171,3.49869674 C40.9141029,3.82401003 41.7122743,4.12451128 40.4341029,4.12451128 C39.1586743,4.12451128 38.6814171,5.0756391 38.6814171,4.12451128 C38.6814171,3.17614035 39.7950171,0.794185464 38.8405029,2.2360401 C37.8805029,3.65032581 38.8405029,3.96461153 37.4087314,4.59869674 C35.9742171,5.24105263 34.5342171,5.3954386 34.5342171,5.3954386 C34.5342171,5.3954386 35.1650743,3.82401003 33.7415314,4.28992481 C32.2933029,4.76411028 32.9323886,5.8558396 32.1424457,5.24105263 C31.3360457,4.59869674 31.96416,2.86461153 30.7051886,3.82401003 C29.4352457,4.76411028 30.5406171,4.44155388 29.1115886,5.0756391 C27.6853029,5.70145363 27.3643886,5.8558396 26.7143314,6.33553885 C26.0917029,6.82350877 26.0917029,6.95859649 24.3307886,7.28942356 C22.5671314,7.60370927 22.8853029,7.44380952 21.4480457,7.76360902 C20.0272457,8.09443609 20.0272457,8.4114787 18.90816,7.76360902 C17.7863314,7.1322807 16.5054171,7.44380952 17.7863314,6.66085213 C19.06176,5.8558396 16.3463314,5.0756391 16.3463314,5.0756391 C16.3463314,5.0756391 -12.6703543,18.1791479 -13.48224,18.9979449 C-14.2721829,19.7726316 -15.7149257,20.0896742 -15.7149257,21.2062155 C-15.7149257,22.2979449 -15.3775543,22.9182456 -16.5130971,23.4144862 C-17.6184686,23.8859148 -17.93664,24.5117293 -19.0612114,23.5633584 C-20.1665829,22.6205013 -19.8593829,21.8265163 -20.9674971,21.9836591 C-22.0893257,22.140802 -23.2001829,22.7831579 -24.6346971,23.2601003 C-26.0692114,23.7342857 -27.9892114,23.4144862 -30.3672686,24.2002005 C-32.7672686,24.9776441 -33.5544686,24.2002005 -35.3153829,25.1485714 C-37.0653257,26.0914286 -35.3153829,27.5084712 -35.3153829,27.5084712" id="Fill-17" fill="#FEFEFE" fill-rule="nonzero" mask="url(#mask-8)"></path>
                        </g>
                    </g>
                    <path d="M39.9656229,8.77518797 C39.9656229,8.77518797 39.7955657,9.24110276 39.3183086,10.0350877 C38.8410514,10.8345865 38.6792229,10.9779449 38.04288,11.4548872 C37.4065371,11.9373434 37.4065371,11.4548872 37.0883657,12.5714286 C36.7592229,13.6714286 36.44928,13.8368421 35.6538514,13.9912281 C34.8474514,14.1290727 34.6938514,13.1944862 33.89568,13.8368421 C33.1029943,14.4598997 31.49568,13.3571429 31.49568,13.3571429 C31.49568,13.3571429 32.2938514,12.5714286 33.56928,11.7691729 C34.8474514,10.9779449 35.8074514,9.72907268 36.6165943,9.40651629 C37.4065371,9.08947368 39.9656229,8.77518797 39.9656229,8.77518797" id="Fill-20" fill="#FEFEFE" fill-rule="nonzero"></path>
                    <g id="Group-24" transform="translate(42.597403, 0.000000)">
                        <g id="Fill-22-Clipped" transform="translate(-0.000000, 0.000000)">
                            <mask id="mask-10" fill="white">
                                <use xlink:href="#path-9"></use>
                            </mask>
                            <g id="path-9"></g>
                            <path d="M-0.39497974,2.76598997 C0.551305974,3.55721805 1.35222026,3.71711779 1.99130597,3.85496241 C2.63039169,4.04243108 3.27770597,4.33741855 3.27770597,4.33741855 C3.27770597,4.33741855 3.88936312,4.20233083 4.5366774,3.71711779 C5.16479169,3.23466165 5.01942026,2.44894737 5.82033455,2.30558897 C6.62399169,2.13466165 7.56204883,1.02639098 7.56204883,1.02639098 C7.56204883,1.02639098 6.44296312,-0.867593985 5.16479169,-0.71320802 C3.88936312,-0.569849624 3.09942026,-1.02197995 3.57393455,-0.079122807 C4.05393455,0.872005013 4.85759169,1.32964912 4.85759169,1.32964912 L3.57393455,1.81210526 L1.49759169,1.81210526 C1.49759169,1.81210526 -1.36046545,1.98303258 -0.39497974,2.76598997" id="Fill-22" fill="#FEFEFE" fill-rule="nonzero" mask="url(#mask-10)"></path>
                        </g>
                    </g>
                    <path d="M50.4872229,8.92847118 C46.1727086,9.40541353 45.8737371,10.1966416 47.4563657,10.4971429 C49.0417371,10.8334837 49.5327086,10.4971429 50.3226514,10.4971429 C51.1235657,10.4971429 50.9617371,10.9768421 52.2371657,10.6542857 C53.51808,10.3344862 54.7989943,8.44601504 50.4872229,8.92847118" id="Fill-25" fill="#FEFEFE" fill-rule="nonzero"></path>
                </g>
                <g id="Group-51" transform="translate(0.000000, 20.000000)">
                    <g id="Group-30" transform="translate(5.475040, 29.112376)">
                        <g id="Fill-28-Clipped" transform="translate(0.000000, -0.000000)">
                            <mask id="mask-12" fill="white">
                                <use xlink:href="#path-11"></use>
                            </mask>
                            <g id="path-11"></g>
                            <path d="M96.39219,6.46365405 C82.0311594,-0.518707255 68.7021739,-7.01990782 68.0615942,-7.43746686 C66.6271337,-8.40808421 64.2400161,-9.66905718 63.1313205,-10.1474526 C62.0034622,-10.6230828 56.4271337,-13.6289548 54.9871981,-13.7810458 C53.5664251,-13.9469633 51.3353462,-13.9469633 51.3353462,-13.9469633 C51.3353462,-13.9469633 49.12343,-13.2943545 49.9036232,-12.6859903 C50.6947665,-12.0389121 51.0260064,-11.0987129 51.0260064,-11.0987129 C51.0260064,-11.0987129 52.2962158,-10.1474526 52.1347021,-9.50313969 C51.9649758,-8.86988791 51.6556361,-8.86988791 50.6947665,-8.40808421 C49.7366345,-7.92692347 48.7949275,-7.92692347 48.7949275,-7.30473286 C48.7949275,-6.65488933 47.8367955,-5.84465889 46.8950886,-6.16266743 C45.9205314,-6.49726771 45.7863929,-7.43746686 45.7863929,-7.43746686 C45.7863929,-7.43746686 45.2826892,-8.56570583 44.3327697,-9.19066174 C43.3746377,-9.8294441 43.6976651,-11.0987129 42.2686795,-10.7724085 C40.834219,-10.4461041 41.6308374,-10.1474526 40.355153,-10.1474526 C39.0822061,-10.1474526 38.6058776,-9.19066174 38.6058776,-10.1474526 C38.6058776,-11.0987129 39.7173108,-13.4879249 38.7646538,-12.0389121 C37.8065217,-10.6230828 38.7646538,-10.3050743 37.3356683,-9.66905718 C35.9039452,-9.02750953 34.4667472,-8.86988791 34.4667472,-8.86988791 C34.4667472,-8.86988791 35.0963768,-10.4461041 33.6756039,-9.97876984 C32.2329308,-9.50313969 32.8680354,-8.40808421 32.0796296,-9.02750953 C31.2747987,-9.66905718 31.9016908,-11.4111909 30.6451691,-10.4461041 C29.3804348,-9.50313969 30.4809179,-9.8294441 29.0546699,-9.19066174 C27.6311594,-8.56570583 27.3108696,-8.40808421 26.6620773,-7.92692347 C26.0406602,-7.43746686 26.0406602,-7.30473286 24.2831723,-6.97013257 C22.5229469,-6.65488933 22.8404992,-6.81804154 21.4060386,-6.49726771 C19.9880032,-6.16266743 19.9880032,-5.84465889 18.871095,-6.49726771 C17.7514493,-7.1277542 16.4730274,-6.81804154 17.7514493,-7.60338435 C19.0243961,-8.40808421 16.3142512,-9.19066174 16.3142512,-9.19066174 C16.3142512,-9.19066174 8.1673913,-5.49070156 0.392834138,-1.89582248" id="Fill-28" fill="#FEFEFE" fill-rule="nonzero" mask="url(#mask-12)"></path>
                        </g>
                    </g>
                    <g id="Group-33" transform="translate(32.850242, 34.642959)">
                        <g id="Fill-31-Clipped" transform="translate(0.000000, -0.000000)">
                            <mask id="mask-14" fill="white">
                                <use xlink:href="#path-13"></use>
                            </mask>
                            <g id="path-13"></g>
                            <path d="M-22.4120773,15.0269326 C-22.3080515,14.9937491 -22.1930757,14.9660962 -22.0452496,14.9329127 C-20.6135266,14.6149041 -20.9146538,14.2996609 -19.3323671,13.8102043 C-17.741868,13.3401047 -17.2764895,13.6664091 -16.4743961,12.858944 C-15.6695652,12.0653053 -13.9202899,10.6467107 -15.0454106,10.6467107 C-16.1431562,10.6467107 -16.31562,10.0079283 -18.3714976,10.6467107 C-20.4438003,11.2716666 -23.1512077,14.2996609 -20.9146538,11.2716666 C-18.7,8.27685576 -18.3714976,7.31176899 -17.1040258,6.83613883 C-15.8310789,6.35774339 -15.8310789,5.57240057 -15.0454106,6.03973485 C-14.2351047,6.52089559 -12.8033816,6.99099516 -11.6974235,6.35774339 C-10.5777778,5.74108336 -9.62238325,4.92255704 -8.50547504,4.46075334 C-7.38856683,3.99341906 -5.48325282,3.03939346 -5.48325282,3.03939346 L-3.40547504,1.13963812 C-3.40547504,1.13963812 -1.97922705,-0.610791465 -1.50563607,0.661242674 C-1.02930757,1.92221565 -0.550241546,1.59867653 0.254589372,3.5177889 C1.02657005,5.40924836 2.15169082,6.67851721 2.31594203,7.77910327 C2.47198068,8.87415875 2.31594203,10.9647192 2.64170692,11.9049183 C2.95652174,12.858944 2.64170692,14.1282128 3.58615137,15.0850037 C4.52785829,16.0307334 5.66392915,16.0307334 5.81996779,16.6695158 C5.98148148,17.297237 5.81996779,17.6180108 6.76988728,18.5637405 C7.72254428,19.5343579 9.0037037,20.474557 9.78663446,20.3197007 C10.5942029,20.1620791 9.95909823,20.3197007 11.0650564,19.0449013 C12.1764895,17.7783977 11.5441224,17.7783977 13.1291465,17.1534418 C14.7442834,16.5257206 12.5132045,16.3653337 11.3908213,16.3653337 C10.2711755,16.3653337 9.17069243,15.8731118 8.67246377,15.8731118 C8.20982287,15.8731118 7.88679549,15.7237861 7.25169082,15.2509212 C6.61932367,14.7697605 5.81996779,13.8102043 5.81996779,12.858944 C5.81996779,11.9049183 5.98148148,10.6467107 5.98148148,10.6467107 C5.98148148,10.6467107 4.38003221,9.68991977 5.81996779,8.87415875 C7.25169082,8.11370356 7.09017713,8.87415875 8.20982287,7.31176899 C9.31304348,5.74108336 10.1123994,6.52089559 9.78663446,7.46939061 C9.46908213,8.40405917 8.67246377,9.52953286 8.53011272,10.3342327 C8.36312399,11.1223408 7.56650564,12.3971403 9.0037037,11.5952057 C10.4299517,10.8070976 10.4299517,10.1738458 11.3908213,9.06219858 C12.3407407,7.94778606 11.7083736,6.21118293 12.9813205,6.52089559 C14.2570048,6.83613883 15.6887279,7.46939061 15.0590982,8.73312888 C14.4048309,10.0079283 14.1009662,10.1738458 14.1009662,10.9647192 C14.1009662,11.7472967 15.0590982,11.4348188 15.368438,12.7123835 C15.6887279,13.9761218 13.94219,14.6149041 15.6887279,14.7697605 C17.4325282,14.9329127 16.794686,14.4489866 18.2346216,13.6664091 C19.6663446,12.858944 19.8223833,12.2256922 20.6135266,10.6467107 C21.421095,9.06219858 21.7495974,7.46939061 21.7495974,7.46939061 C21.7495974,7.46939061 22.0616747,3.99341906 22.6885668,3.99341906 C23.3181965,3.99341906 24.4487923,3.67264523 24.2818035,4.92255704 C24.1202899,6.21118293 23.8109501,6.67851721 23.6494364,7.94778606 C23.4879227,9.21428962 23.4879227,10.1738458 23.9587762,11.2716666 C24.4487923,12.3971403 24.4487923,12.3971403 24.758132,13.6664091 C25.0756844,14.9329127 24.5911433,15.4085428 25.0756844,16.0307334 C25.5547504,16.6695158 25.5547504,17.6180108 25.8695652,15.5633991 C26.1925926,13.5004916 26.1925926,12.858944 26.3486312,11.5952057 C26.5074074,10.3342327 26.6743961,8.40405917 27.3177134,8.11370356 C27.9309179,7.77910327 28.894525,7.15967795 28.4181965,8.40405917 C27.9309179,9.68991977 28.0979066,10.6467107 28.0979066,10.6467107 C28.0979066,10.6467107 30.9723027,7.15967795 30.3289855,9.06219858 C29.7048309,10.9647192 27.3177134,11.7472967 28.894525,11.7472967 C30.4932367,11.7472967 30.8025765,10.8070976 31.7607085,9.84754139 C32.7215781,8.87415875 33.3648953,7.77910327 33.8247987,7.15967795 C34.3148148,6.52089559 34.7911433,5.40924836 35.5795491,4.92255704 C36.3761675,4.46075334 37.3397746,3.34357553 38.1144928,3.17489275 C38.9302738,3.03939346 38.4457327,2.07983727 40.0362319,3.67264523 C41.6404187,5.24056558 42.2727858,5.57240057 42.7381643,7.15967795 C43.2309179,8.73312888 44.1835749,10.3342327 44.9692432,11.2716666 C45.7713366,12.2256922 46.5679549,13.3401047 47.9969404,14.2996609 C49.4505636,15.2509212 50.5510467,16.8299027 51.9772947,17.7783977 C53.4199678,18.7213622 50.0637681,13.9761218 48.7880837,12.5437007 C47.5288245,11.1223408 46.0943639,8.27685576 46.0943639,8.27685576 C47.8409018,9.52953286 48.7880837,9.06219858 50.5510467,10.0079283 C52.294847,10.9647192 51.8185185,10.1738458 53.7238325,11.1223408 C55.6373591,12.0653053 55.484058,11.4348188 56.7679549,13.0220962 C58.0217391,14.6149041 58.5117552,14.6149041 59.7847021,15.4085428 C61.0330113,16.1911203 60.8988728,16.1911203 62.0075684,16.6695158 C63.1190016,17.1534418 63.442029,18.093641 63.2723027,15.5633991 C63.1190016,13.0220962 64.873752,12.7123835 65.9879227,12.858944 C67.1020934,13.0220962 68.2217391,12.858944 68.8458937,12.858944 C69.4837359,12.858944 70.7594203,13.8102043 71.7202899,13.8102043 C72.6674718,13.8102043 70.9072464,12.5437007 74.1074074,13.0220962 C77.2938808,13.5004916 76.9845411,12.7123835 78.405314,13.8102043 C79.8342995,14.9329127 77.7647343,14.6149041 81.4275362,15.5633991 C85.0876006,16.5257206 85.2436393,16.5257206 86.0484702,16.6695158 C86.842351,16.8299027 88.1152979,16.6695158 89.215781,17.4631545 C90.3354267,18.2540279 91.7780998,17.7783977 92.2489533,18.5637405 C92.7362319,19.3518486 94.0009662,20.1620791 95.1233494,20.3197007 C96.2320451,20.474557 95.9144928,20.1620791 97.8170692,20.474557 C99.7360709,20.7787391 99.7360709,20.6321787 101.808374,20.7787391 C103.872464,20.9529525 105.139936,18.4227107 105.139936,18.4227107 C105.139936,18.4227107 86.3304348,9.32213599 69.01562,0.932241252" id="Fill-31" fill="#FEFEFE" fill-rule="nonzero" mask="url(#mask-14)"></path>
                        </g>
                    </g>
                    <g id="Group-36" transform="translate(0.000000, 40.173542)" fill-rule="nonzero" fill="#FEFEFE">
                        <path d="M7.1126248,0.157959602 C6.56512077,1.15899516 5.97929147,2.15726543 5.72196457,2.74627255 C5.08138486,4.15933656 3.32389694,6.53472205 3.32389694,6.53472205 C3.32389694,6.53472205 0.156586151,6.53472205 0.616489533,7.80952148 C1.11198068,9.08432091 3.17333333,9.40232945 4.12599034,9.23917724 C5.08138486,9.08432091 4.91713366,8.13582589 6.19555556,7.96990839 C7.46850242,7.80952148 9.21504026,7.66296102 8.10634461,8.76907767 C6.97848631,9.8779596 5.08138486,9.08432091 6.83066023,10.3425286 C8.58267311,11.6228586 9.37381643,12.4054361 9.84740741,11.1389326 C10.2771981,10.0079283 9.57639291,9.75628677 10.4387118,9.49634936" id="Fill-34"></path>
                    </g>
                    <g id="Group-41" transform="translate(5.475040, 29.112376)">
                        <g id="Fill-39-Clipped" transform="translate(0.000000, -0.000000)">
                            <mask id="mask-16" fill="white">
                                <use xlink:href="#path-15"></use>
                            </mask>
                            <g id="path-15"></g>
                            <path d="M0.39173913,-1.89692859 C-6.49038647,1.28315676 -13.0686473,4.39134452 -13.4573752,4.77295477 C-14.245781,5.55000171 -15.6857166,5.86801024 -15.6857166,6.98795334 C-15.6857166,8.08300882 -15.3490016,8.70519943 -16.4795974,9.20295192 C-17.582818,9.67581679 -17.9031079,10.303538 -19.0254911,9.35227767 C-20.1259742,8.40654794 -19.8221095,7.61014395 -20.9253301,7.76776558 C-22.0449758,7.9253872 -23.156409,8.56970014 -24.588132,9.04809559 C-26.0171176,9.52372575 -27.9361192,9.20295192 -30.3095491,9.99106003 C-32.7048792,10.7708723 -33.4905475,9.99106003 -35.2480354,10.9423203 C-36.9918357,11.8880501 -35.2480354,13.30941 -35.2480354,13.30941 C-35.2480354,13.30941 -33.6575362,13.6440102 -32.5378905,13.8071624 C-31.4319324,13.9371312 -26.8164734,13.1656148 -30.7968277,14.1196404 C-34.7744444,15.0598395 -35.7271014,15.3778481 -35.7271014,15.3778481 C-35.7271014,15.3778481 -34.2981159,17.435225 -35.0947343,17.7559989 C-35.8804026,18.0740074 -36.5319324,18.0740074 -37.4873269,18.5551681 C-38.4208213,19.0307983 -36.9918357,16.0055693 -39.3816908,16.8019733 C-41.7688084,17.5956119 -44.9607568,17.5956119 -42.5626892,19.0307983 C-40.1837842,20.4632193 -38.2647826,20.6153104 -36.9918357,20.1452108 C-35.7271014,19.6585195 -34.7744444,18.0740074 -33.6575362,17.9274469 C-32.5378905,17.7559989 -32.0725121,17.435225 -30.7968277,17.1255124 C-29.5211433,16.8019733 -27.9361192,16.1770174 -26.4934461,16.0055693 C-25.0699356,15.8645394 -25.2232367,15.2202265 -23.635475,15.2202265 C-22.0449758,15.2202265 -17.582818,13.8071624 -18.8612399,14.5925053 C-20.1259742,15.3778481 -24.588132,15.0598395 -20.4462641,16.0055693 C-16.3098712,16.9651255 -15.8280676,16.0055693 -14.5660709,16.3374043 C-13.2903865,16.6526475 -12.5019807,17.7559989 -11.3713849,16.9651255 C-10.2654267,16.1770174 -10.9005314,15.7041525 -8.98152979,14.9160444 C-7.0789533,14.1196404 -6.92017713,13.1656148 -4.045781,12.0512023 C-2.12677939,11.2962777 -0.194090177,9.9689377 1.15550725,9.15041138" id="Fill-39" fill="#FEFEFE" fill-rule="nonzero" mask="url(#mask-16)"></path>
                        </g>
                    </g>
                    <g id="Group-44" transform="translate(36.587762, 9.755334)" fill-rule="nonzero" fill="#FEFEFE">
                        <path d="M8.77513688,0.498366999 C8.77513688,0.498366999 8.60541063,0.96570128 8.12908213,1.76210526 C7.65275362,2.56403983 7.49123994,2.70783499 6.85613527,3.18623044 C6.2210306,3.67015647 6.2210306,3.18623044 5.90347826,4.30617354 C5.57497585,5.40952489 5.26563607,5.57544239 4.47175523,5.73029872 C3.66692432,5.8685633 3.51362319,4.93112945 2.71700483,5.57544239 C1.92586151,6.20039829 0.321674718,5.09428165 0.321674718,5.09428165 C0.321674718,5.09428165 1.11829308,4.30617354 2.39123994,3.50147368 C3.66692432,2.70783499 4.62505636,1.45515789 5.4326248,1.13161878 C6.2210306,0.813610242 8.77513688,0.498366999 8.77513688,0.498366999" id="Fill-42"></path>
                    </g>
                    <g id="Group-47" transform="translate(46.537842, 0.000000)" fill-rule="nonzero" fill="#FEFEFE">
                        <path d="M1.05750403,4.22619516 C2.00194847,5.01983385 2.80130435,5.18022077 3.43914654,5.31848535 C4.07698873,5.50652518 4.72304348,5.80241138 4.72304348,5.80241138 C4.72304348,5.80241138 5.33351047,5.66691209 5.97956522,5.18022077 C6.60645733,4.69629474 6.46136876,3.90818663 7.26072464,3.76439147 C8.06281804,3.59294339 8.99904992,2.48129616 8.99904992,2.48129616 C8.99904992,2.48129616 7.88214171,0.581540825 6.60645733,0.736397155 C5.33351047,0.880192319 4.54510467,0.426684495 5.01869565,1.37241422 C5.49776167,2.32643983 6.29985507,2.78547824 6.29985507,2.78547824 L5.01869565,3.26940427 L2.94639291,3.26940427 C2.94639291,3.26940427 0.0938969404,3.44085235 1.05750403,4.22619516" id="Fill-45"></path>
                    </g>
                    <g id="Group-50" transform="translate(51.724638, 9.755334)" fill-rule="nonzero" fill="#FEFEFE">
                        <path d="M4.13938808,0.652117212 C-0.166731079,1.13051266 -0.465120773,1.92415135 1.11442834,2.22556814 C2.69671498,2.56293371 3.18673108,2.22556814 3.97513688,2.22556814 C4.77449275,2.22556814 4.61297907,2.70672888 5.88592593,2.38318976 C7.16434783,2.06241593 8.44276973,0.168191181 4.13938808,0.652117212" id="Fill-48"></path>
                    </g>
                </g>
                <g id="Group-92" transform="translate(111.000000, 11.000000)" fill-rule="nonzero">
                    <path d="M4.54253883,68.4935172 C4.54253883,72.9017931 6.90612284,76.8190345 11.0912349,76.8190345 C15.2735955,76.8190345 17.639931,72.9597241 17.639931,68.3114483 C17.639931,64.2038621 15.5157321,59.9528276 11.121502,59.9528276 C6.72452034,59.9528276 4.54253883,64.0273103 4.54253883,68.4935172 Z M20.4245027,68.1873103 C20.4245027,75.208 16.1540924,78.9790345 10.937148,78.9790345 C5.51383703,78.9790345 1.7524641,74.7555862 1.7524641,68.5514483 C1.7524641,62.0493793 5.75322214,57.7928276 11.2123033,57.7928276 C16.8199683,57.7928276 20.4245027,62.0824828 20.4245027,68.1873103 Z" id="Fill-52" fill="#005140"></path>
                    <path d="M28.7531784,68.278069 C29.328253,68.4353103 30.0574145,68.4932414 30.9351599,68.4932414 C34.1187067,68.4932414 36.0585516,66.9097931 36.0585516,64.1456552 C36.0585516,61.4146207 34.1187067,60.1042759 31.2378308,60.1042759 C30.08493,60.1042759 29.2071846,60.1953103 28.7531784,60.313931 L28.7531784,68.278069 Z M26.1144391,58.4022069 C27.3884081,58.1925517 29.0558492,58.0077241 31.1772966,58.0077241 C33.7857688,58.0077241 35.692595,58.6173793 36.9060299,59.7125517 C37.9983964,60.6808276 38.6945393,62.1732414 38.6945393,63.993931 C38.6945393,65.8477241 38.1497319,67.3070345 37.1178995,68.3691034 C35.692595,69.8615172 33.4500794,70.6228966 30.8746258,70.6228966 C30.08493,70.6228966 29.3585201,70.5897931 28.7531784,70.438069 L28.7531784,78.6449655 L26.1144391,78.6449655 L26.1144391,58.4022069 Z" id="Fill-54" fill="#005140"></path>
                    <polygon id="Fill-56" fill="#005140" points="55.0514212 69.0375172 47.1407064 69.0375172 47.1407064 76.4251034 55.9924524 76.4251034 55.9924524 78.6430345 44.4717 78.6430345 44.4717 58.1602759 55.5384461 58.1602759 55.5384461 60.3782069 47.1407064 60.3782069 47.1407064 66.849931 55.0514212 66.849931"></polygon>
                    <path d="M64.3189268,67.7608276 L67.0154488,67.7608276 C69.8357906,67.7608276 71.6243,66.2132414 71.6243,63.8711724 C71.6243,61.2311724 69.7147223,60.0725517 66.9246475,60.0725517 C65.6506785,60.0725517 64.7729331,60.1635862 64.3189268,60.2877241 L64.3189268,67.7608276 Z M61.6801875,58.433931 C63.0146907,58.1911724 64.9545356,58.0091034 66.743045,58.0091034 C69.5633868,58.0091034 71.4124304,58.5525517 72.6533808,59.678069 C73.6549461,60.5884138 74.2602878,61.9897931 74.2602878,63.6008276 C74.2602878,66.273931 72.5625796,68.0670345 70.4438838,68.7953103 L70.4438838,68.8863448 C71.987505,69.4353103 72.9285361,70.8918621 73.4128095,73.0187586 C74.0786853,75.873931 74.5657102,77.8518621 74.9894493,78.6435862 L72.2626603,78.6435862 C71.9269709,78.0366897 71.4729646,76.3015172 70.9254056,73.7525517 C70.3228155,70.9222069 69.1974303,69.8628966 66.8035792,69.7718621 L64.3189268,69.7718621 L64.3189268,78.6435862 L61.6801875,78.6435862 L61.6801875,58.433931 Z" id="Fill-58" fill="#005140"></path>
                    <path d="M90.4372181,70.1313103 L88.4093236,64.2361379 C87.9525658,62.9009655 87.6498949,61.6816552 87.3472241,60.4982069 L87.2839384,60.4982069 C86.9812676,61.6816552 86.6813483,62.9588966 86.2548576,64.2057931 L84.2544785,70.1313103 L90.4372181,70.1313103 Z M83.7096711,72.2002759 L81.5854722,78.6444138 L78.8586831,78.6444138 L85.8311184,58.1588966 L88.9843981,58.1588966 L95.9568334,78.6444138 L93.13374,78.6444138 L90.9517585,72.2002759 L83.7096711,72.2002759 Z" id="Fill-60" fill="#005140"></path>
                    <path d="M103.85379,76.5754483 C104.519666,76.6664828 105.490965,76.6995862 106.522797,76.6995862 C112.188244,76.6995862 115.220456,73.5354483 115.220456,68.009931 C115.253475,63.1768276 112.521182,60.1037241 106.946536,60.1037241 C105.581766,60.1037241 104.549933,60.2278621 103.85379,60.3795862 L103.85379,76.5754483 Z M101.215051,58.4623448 C102.821958,58.192 104.731536,58.009931 106.822716,58.009931 C110.614356,58.009931 113.31363,58.9202759 115.099388,60.5616552 C116.948431,62.2333793 118.010531,64.6030345 118.010531,67.9161379 C118.010531,71.2568276 116.948431,73.9933793 115.06912,75.8747586 C113.129276,77.792 109.978747,78.8264828 106.005505,78.8264828 C104.095927,78.8264828 102.549554,78.7354483 101.215051,78.5809655 L101.215051,58.4623448 Z" id="Fill-62" fill="#005140"></path>
                    <path d="M125.242712,68.4935172 C125.242712,72.9017931 127.606296,76.8190345 131.791409,76.8190345 C135.973769,76.8190345 138.337353,72.9597241 138.337353,68.3114483 C138.337353,64.2038621 136.215906,59.9528276 131.821676,59.9528276 C127.424694,59.9528276 125.242712,64.0273103 125.242712,68.4935172 M141.124676,68.1873103 C141.124676,75.208 136.854266,78.9790345 131.637322,78.9790345 C126.214011,78.9790345 122.452638,74.7555862 122.452638,68.5514483 C122.452638,62.0493793 126.453396,57.7928276 131.912477,57.7928276 C137.520142,57.7928276 141.124676,62.0824828 141.124676,68.1873103" id="Fill-64" fill="#005140"></path>
                    <path d="M149.453352,67.7608276 L152.149874,67.7608276 C154.970216,67.7608276 156.758725,66.2132414 156.758725,63.8711724 C156.758725,61.2311724 154.849147,60.0725517 152.059073,60.0725517 C150.785104,60.0725517 149.907358,60.1635862 149.453352,60.2877241 L149.453352,67.7608276 Z M146.814613,58.433931 C148.149116,58.1911724 150.088961,58.0091034 151.87747,58.0091034 C154.69506,58.0091034 156.546856,58.5525517 157.787806,59.678069 C158.789371,60.5884138 159.394713,61.9897931 159.394713,63.6008276 C159.394713,66.273931 157.697005,68.0670345 155.578309,68.7953103 L155.578309,68.8863448 C157.12193,69.4353103 158.062961,70.8918621 158.547235,73.0187586 C159.21311,75.873931 159.700135,77.8518621 160.123875,78.6435862 L157.397086,78.6435862 C157.061396,78.0366897 156.60739,76.3015172 156.059831,73.7525517 C155.457241,70.9222069 154.331855,69.8628966 151.938004,69.7718621 L149.453352,69.7718621 L149.453352,78.6435862 L146.814613,78.6435862 L146.814613,58.433931 Z" id="Fill-66" fill="#005140"></path>
                    <path d="M199.991676,69.6463448 C199.840341,66.7911724 199.658738,63.3263448 199.658738,60.8049655 L199.595452,60.8049655 C198.871794,63.1746207 198.051831,65.7566897 197.02275,68.5842759 L193.412713,78.5208276 L191.415085,78.5208276 L188.080203,68.7691034 C187.108905,65.8477241 186.319209,63.2353103 185.744135,60.8049655 L185.683601,60.8049655 C185.623066,63.3594483 185.471731,66.758069 185.290128,69.8615172 L184.745321,78.6449655 L182.22765,78.6449655 L183.655706,58.1594483 L187.018104,58.1594483 L190.504321,68.0684138 C191.3518,70.5897931 192.020427,72.8353103 192.565235,74.9649655 L192.625769,74.9649655 C193.170576,72.9015172 193.899738,70.6477241 194.80775,68.0684138 L198.445303,58.1594483 L201.810453,58.1594483 L203.084422,78.6449655 L200.478701,78.6449655 L199.991676,69.6463448 Z" id="Fill-68" fill="#005140"></path>
                    <path d="M219.136982,70.1313103 L217.109087,64.2361379 C216.652329,62.9009655 216.349659,61.6816552 216.046988,60.4982069 L215.983702,60.4982069 C215.681031,61.6816552 215.381112,62.9588966 214.954621,64.2057931 L212.954242,70.1313103 L219.136982,70.1313103 Z M212.409435,72.2002759 L210.285236,78.6444138 L207.558447,78.6444138 L214.530882,58.1588966 L217.684162,58.1588966 L224.656597,78.6444138 L221.833504,78.6444138 L219.651522,72.2002759 L212.409435,72.2002759 Z" id="Fill-70" fill="#005140"></path>
                    <path d="M232.072307,78.6444138 L232.072307,69.9547586 L225.584146,58.1588966 L228.616357,58.1588966 L231.494481,63.8113103 C232.251158,65.3644138 232.889519,66.6085517 233.525127,68.0347586 L233.588413,68.0347586 C234.133221,66.6995862 234.859631,65.3644138 235.649326,63.8113103 L238.587985,58.1588966 L241.559662,58.1588966 L234.738562,69.9216552 L234.738562,78.6444138 L232.072307,78.6444138 Z" id="Fill-72" fill="#005140"></path>
                    <path d="M246.671222,68.4935172 C246.671222,72.9017931 249.034806,76.8190345 253.219918,76.8190345 C257.402279,76.8190345 259.765863,72.9597241 259.765863,68.3114483 C259.765863,64.2038621 257.644415,59.9528276 253.250185,59.9528276 C248.853204,59.9528276 246.671222,64.0273103 246.671222,68.4935172 M262.553186,68.1873103 C262.553186,75.208 258.282776,78.9790345 253.065831,78.9790345 C247.64252,78.9790345 243.881147,74.7555862 243.881147,68.5514483 C243.881147,62.0493793 247.881905,57.7928276 253.340987,57.7928276 C258.948652,57.7928276 262.553186,62.0824828 262.553186,68.1873103" id="Fill-74" fill="#005140"></path>
                    <path d="M270.881587,67.7608276 L273.578109,67.7608276 C276.39845,67.7608276 278.18696,66.2132414 278.18696,63.8711724 C278.18696,61.2311724 276.277382,60.0725517 273.487307,60.0725517 C272.213338,60.0725517 271.335593,60.1635862 270.881587,60.2877241 L270.881587,67.7608276 Z M268.242847,58.433931 C269.57735,58.1911724 271.517195,58.0091034 273.305705,58.0091034 C276.123295,58.0091034 277.97509,58.5525517 279.216041,59.678069 C280.217606,60.5884138 280.822948,61.9897931 280.822948,63.6008276 C280.822948,66.273931 279.125239,68.0670345 277.006544,68.7953103 L277.006544,68.8863448 C278.550165,69.4353103 279.491196,70.8918621 279.975469,73.0187586 C280.641345,75.873931 281.12837,77.8518621 281.552109,78.6435862 L278.82532,78.6435862 C278.489631,78.0366897 278.035624,76.3015172 277.488065,73.7525517 C276.885475,70.9222069 275.76009,69.8628966 273.366239,69.7718621 L270.881587,69.7718621 L270.881587,78.6435862 L268.242847,78.6435862 L268.242847,58.433931 Z" id="Fill-76" fill="#005140"></path>
                    <polygon id="Fill-78" fill="#005140" points="286.786113 78.6441379 289.45512 78.6441379 289.45512 58.1586207 286.786113 58.1586207"></polygon>
                    <path d="M295.995011,75.4223448 C297.178178,76.1809655 298.875887,76.7575172 300.694663,76.7575172 C303.391185,76.7575172 304.970577,75.3313103 304.970577,73.2623448 C304.970577,71.3809655 303.875458,70.2554483 301.118402,69.2209655 C297.78352,68.0071724 295.722607,66.2416552 295.722607,63.3864828 C295.722607,60.1947586 298.358595,57.8251034 302.331837,57.8251034 C304.39275,57.8251034 305.939123,58.3106207 306.81962,58.8264828 L306.090459,60.9892414 C305.45485,60.5892414 304.087328,60.0126897 302.241036,60.0126897 C299.450961,60.0126897 298.388862,61.6844138 298.388862,63.0830345 C298.388862,64.9975172 299.632564,65.9382069 302.452906,67.0333793 C305.908856,68.3685517 307.63408,70.0402759 307.63408,73.0526897 C307.63408,76.214069 305.333782,78.9782069 300.513061,78.9782069 C298.542949,78.9782069 296.391234,78.3685517 295.298868,77.6430345 L295.995011,75.4223448 Z" id="Fill-80" fill="#005140"></path>
                    <polygon id="Fill-81" fill="#005140" points="317.418877 60.406069 311.205871 60.406069 311.205871 58.1605517 326.331158 58.1605517 326.331158 60.406069 320.087884 60.406069 320.087884 78.6433103 317.418877 78.6433103"></polygon>
                    <path d="M338.630599,70.1313103 L336.602705,64.2361379 C336.145947,62.9009655 335.843276,61.6816552 335.540605,60.4982069 L335.47732,60.4982069 C335.174649,61.6816552 334.87473,62.9588966 334.448239,64.2057931 L332.44786,70.1313103 L338.630599,70.1313103 Z M331.903052,72.2002759 L329.778853,78.6444138 L327.052064,78.6444138 L334.0245,58.1588966 L337.177779,58.1588966 L344.150215,78.6444138 L341.327121,78.6444138 L339.14514,72.2002759 L331.903052,72.2002759 Z" id="Fill-82" fill="#005140"></path>
                    <path d="M351.214002,6.14703448 L352.479716,6.14703448 C353.090561,6.14703448 353.508797,6.03668966 353.728921,5.85737931 C353.951797,5.68910345 354.059107,5.44358621 354.059107,5.15393103 C354.059107,4.94427586 354.012331,4.77875862 353.894014,4.62703448 C353.786704,4.48082759 353.646374,4.36772414 353.451014,4.296 C353.258405,4.21324138 352.91171,4.17186207 352.408176,4.17186207 L351.214002,4.17186207 L351.214002,6.14703448 Z M350.168411,9.79393103 L350.168411,3.30289655 L352.399921,3.30289655 C353.167604,3.30289655 353.723418,3.34151724 354.059107,3.46289655 C354.392045,3.59255172 354.658946,3.8022069 354.881822,4.10013793 C355.077182,4.39806897 355.176238,4.71531034 355.176238,5.04910345 C355.176238,5.52634483 355.022151,5.96496552 354.658946,6.29324138 C354.315002,6.65737931 353.872002,6.85324138 353.310685,6.88634483 C353.544567,6.99393103 353.728921,7.10427586 353.872002,7.25048276 C354.133399,7.48772414 354.441573,7.92634483 354.821287,8.52772414 L355.619238,9.79393103 L354.334263,9.79393103 L353.764691,8.77048276 C353.310685,7.97324138 352.952983,7.46013793 352.669573,7.256 C352.474213,7.11255172 352.179797,7.04634483 351.835852,7.04634483 L351.214002,7.04634483 L351.214002,9.79393103 L350.168411,9.79393103 Z M352.812654,1.39117241 C351.959672,1.39117241 351.136958,1.61737931 350.336256,2.06427586 C349.519045,2.48082759 348.897194,3.10703448 348.437685,3.92358621 C347.98643,4.74013793 347.771809,5.576 347.771809,6.46427586 C347.771809,7.33048276 347.980927,8.18013793 348.437685,8.96358621 C348.875181,9.77186207 349.502536,10.398069 350.311492,10.8504828 C351.109443,11.2808276 351.948666,11.5042759 352.812654,11.5042759 C353.668387,11.5042759 354.521368,11.2808276 355.316567,10.8504828 C356.117269,10.398069 356.744623,9.77186207 357.193126,8.96358621 C357.627872,8.18013793 357.845244,7.33048276 357.845244,6.46427586 C357.845244,5.576 357.622368,4.74013793 357.176617,3.92358621 C356.722611,3.10703448 356.092505,2.48082759 355.275294,2.06427586 C354.47184,1.61737931 353.657381,1.39117241 352.812654,1.39117241 L352.812654,1.39117241 Z M352.812654,0.400827586 C353.830728,0.400827586 354.80753,0.665655172 355.784331,1.19531034 C356.750126,1.7222069 357.504052,2.45875862 358.026847,3.42703448 C358.593667,4.39806897 358.84681,5.39944828 358.84681,6.46427586 C358.84681,7.50703448 358.593667,8.50841379 358.040604,9.46841379 C357.526064,10.4366897 356.755629,11.1870345 355.822853,11.7222069 C354.865312,12.2546207 353.855492,12.5222069 352.812654,12.5222069 C351.764312,12.5222069 350.771001,12.2546207 349.824467,11.7222069 C348.844914,11.1870345 348.09374,10.4366897 347.565442,9.46841379 C347.01238,8.50841379 346.748231,7.50703448 346.748231,6.46427586 C346.748231,5.39944828 347.028889,4.39806897 347.570945,3.42703448 C348.121256,2.45875862 348.875181,1.7222069 349.840977,1.19531034 C350.809523,0.665655172 351.797331,0.400827586 352.812654,0.400827586 L352.812654,0.400827586 Z" id="Fill-83" fill="#F8B133"></path>
                    <path d="M27.8636013,31.4405517 L23.6592284,17.0764138 L19.3613026,31.4405517 L27.8636013,31.4405517 Z M31.3443159,2.224 L47.0914536,46.1274483 L32.2743408,46.1274483 L30.8710487,40.406069 L16.5299546,40.406069 L14.9643209,46.1274483 L0.29028884,46.1274483 L16.0456812,2.224 L31.3443159,2.224 Z" id="Fill-84" fill="#016661"></path>
                    <path d="M63.8729001,35.7133793 L64.2691237,35.7133793 L64.6873598,35.7133793 C64.8249374,35.7713103 64.9625151,35.7878621 65.0808319,35.7878621 L65.4853102,35.7878621 C68.8477079,35.7878621 71.555236,34.9354483 73.6436648,33.2444138 C75.7375966,31.5285517 76.7639259,28.3588966 76.7639259,23.6637241 C76.7639259,19.169931 75.7678637,16.209931 73.783994,14.7837241 C71.8083789,13.3547586 69.2329253,12.6513103 66.0989065,12.6513103 L63.8729001,12.6513103 L63.8729001,35.7133793 Z M67.6755463,2.22372414 C68.982534,2.22372414 70.4683726,2.34786207 72.1633293,2.60993103 C73.8335219,2.85544828 75.5202239,3.31337931 77.2399445,3.92303448 C80.720659,5.16717241 83.9372245,7.2857931 86.8566222,10.2871724 C89.7677653,13.3161379 91.363666,17.614069 91.5837902,23.1864828 L91.5837902,24.4168276 C91.5837902,32.3092414 89.4238211,37.9175172 85.1699202,41.2030345 C80.8774976,44.4885517 75.3688885,46.1271724 68.619329,46.1271724 L49.5345575,46.1271724 L49.5345575,2.22372414 L67.6755463,2.22372414 Z" id="Fill-85" fill="#016661"></path>
                    <path d="M117.721618,15.0262069 C117.589543,13.9337931 117.011717,13.0758621 115.985388,12.4468966 C114.964561,11.8068966 113.869443,11.4041379 112.700033,11.2137931 C112.424878,11.1724138 112.17999,11.142069 111.940605,11.1310345 C111.728735,11.0758621 111.497605,11.0648276 111.282984,11.0648276 C110.457518,11.0648276 109.720101,11.2137931 109.034965,11.4593103 C108.366337,11.6965517 107.923337,12.102069 107.736232,12.6510345 L107.736232,12.7751724 C107.736232,12.8303448 107.725226,12.8965517 107.670194,12.9710345 L107.670194,13.1144828 C107.634424,13.2248276 107.587648,13.3268966 107.540871,13.4675862 C107.540871,14.5931034 108.391101,15.5282759 110.083306,16.2096552 C111.803027,16.9186207 113.66858,17.4813793 115.751506,17.8896552 C115.853313,17.9255172 115.933108,17.9613793 116.034916,17.9944828 C116.117462,18.0110345 116.200009,18.0275862 116.312822,18.0275862 C121.317897,18.9710345 125.288388,20.4855172 128.257314,22.5875862 C131.201476,24.6703448 132.780867,27.7655172 132.989985,31.9117241 L132.989985,32.5765517 C132.989985,37.3517241 130.989606,41.0262069 126.931065,43.6193103 C122.872525,46.2068966 118.373736,47.4868966 113.451207,47.4868966 C108.19299,47.4868966 103.457567,46.3365517 99.2476908,44.0413793 C95.0378147,41.7186207 92.9411313,37.8289655 92.9411313,32.3806897 L106.797952,32.3806897 C107.191424,33.9696552 107.953604,35.1172414 109.034965,35.7875862 C110.116325,36.4717241 111.282984,36.8965517 112.49917,37.0813793 C112.713791,37.0813793 112.964182,37.0951724 113.200816,37.1117241 C113.451207,37.1448276 113.690592,37.1531034 113.929978,37.1531034 C115.247971,37.1531034 116.312822,36.8275862 117.146543,36.1710345 C117.996773,35.5089655 118.450779,34.7944828 118.549835,34.0165517 L118.549835,33.9227586 L118.549835,33.7986207 C118.549835,33.6882759 118.522319,33.542069 118.497555,33.3958621 C118.483798,33.2689655 118.450779,33.1531034 118.420512,33.062069 C118.266425,32.6068966 117.996773,32.1765517 117.556524,31.7627586 C117.121779,31.3627586 116.554959,31.0427586 115.825798,30.8110345 C115.457089,30.7310345 115.104891,30.6344828 114.744437,30.537931 C114.383984,30.4634483 114.026282,30.3613793 113.66858,30.2758621 C113.335642,30.1682759 113.021965,30.1075862 112.700033,30.022069 C112.383605,29.9586207 112.050667,29.897931 111.679207,29.782069 C107.191424,28.6758621 103.072349,27.1558621 99.2944672,25.2634483 C95.5055787,23.382069 93.6207649,20.0662069 93.6207649,15.3075862 C93.6207649,15.0813793 93.6345227,14.8386207 93.6400258,14.5875862 C93.6702929,14.3310345 93.7033115,14.0965517 93.7610941,13.8648276 C93.7610941,13.6468966 93.7610941,13.4234483 93.7886096,13.2303448 C93.8188767,13.0206897 93.8463923,12.8303448 93.8821625,12.6510345 C94.2783861,9.52 95.9210632,6.76413793 98.7551628,4.37517241 C101.56725,2.00275862 105.598275,0.805517241 110.787704,0.805517241 L112.49917,0.805517241 L113.346648,0.805517241 C113.649319,0.805517241 113.929978,0.822068966 114.196878,0.871724138 C118.2224,1.06482759 121.964512,2.12413793 125.387444,4.06344828 C128.859904,6.0137931 130.904308,9.67448276 131.586693,15.0262069 L117.721618,15.0262069 Z" id="Fill-86" fill="#016661"></path>
                    <path d="M136.176559,46.5862069 L136.176559,1.60137931 L145.080584,1.60137931 L155.685069,33.4441379 C156.667374,36.4041379 157.388281,38.622069 157.834032,40.0896552 C158.345821,38.4482759 159.132765,36.062069 160.225132,32.8841379 L171.041486,1.60137931 L178.98522,1.60137931 L178.98522,46.5862069 L173.259238,46.5862069 L173.259238,8.95034483 L160.192113,46.5862069 L154.81833,46.5862069 L141.872273,8.25517241 L141.872273,46.5862069 L136.176559,46.5862069 Z" id="Fill-87" fill="#F8B133"></path>
                    <path d="M212.961947,1.6022069 L218.92181,1.6022069 L218.92181,27.5663448 C218.92181,32.1015172 218.421028,35.6904828 217.389195,38.3470345 C216.373872,41.0146207 214.541338,43.158069 211.875083,44.8270345 C209.233592,46.4904828 205.725362,47.3373793 201.405424,47.3373793 C197.220312,47.3373793 193.786374,46.598069 191.12287,45.158069 C188.445609,43.7042759 186.558044,41.6077241 185.39964,38.8435862 C184.252243,36.096 183.693677,32.3525517 183.693677,27.5663448 L183.693677,1.6022069 L189.65079,1.6022069 L189.65079,27.5663448 C189.65079,31.478069 190.000237,34.3525517 190.73215,36.2091034 C191.444802,38.0628966 192.691256,39.5084138 194.443995,40.4987586 C196.204989,41.478069 198.353952,41.993931 200.893635,41.993931 C205.254847,41.993931 208.336586,41.0146207 210.18563,39.0146207 C212.048431,37.0284138 212.961947,33.2187586 212.961947,27.5663448 L212.961947,1.6022069 Z" id="Fill-88" fill="#F8B133"></path>
                    <polygon id="Fill-89" fill="#F8B133" points="223.785455 46.5862069 223.785455 1.60137931 229.904909 1.60137931 253.438942 36.9282759 253.438942 1.60137931 259.145663 1.60137931 259.145663 46.5862069 253.04547 46.5862069 229.505934 11.2593103 229.505934 46.5862069"></polygon>
                    <path d="M270.105098,41.305931 L279.677751,41.305931 C282.61641,41.305931 284.949727,41.0190345 286.614416,40.4838621 C288.30387,39.9128276 289.646628,39.145931 290.639938,38.1417931 C292.05974,36.7266207 293.160361,34.8176552 293.944553,32.4342069 C294.714988,30.048 295.100206,27.1569655 295.100206,23.7583448 C295.100206,19.0411034 294.343529,15.4052414 292.80541,12.8783448 C291.256286,10.3569655 289.409994,8.66317241 287.192242,7.79972414 C285.604596,7.20110345 283.048404,6.88386207 279.526416,6.88386207 L270.105098,6.88386207 L270.105098,41.305931 Z M264.139731,46.585931 L264.139731,1.60110345 L279.600708,1.60110345 C283.09518,1.60110345 285.744926,1.82455172 287.596721,2.24937931 C290.177677,2.8342069 292.359659,3.90455172 294.18669,5.46317241 C296.56128,7.4742069 298.31402,10.0342069 299.494436,13.1624828 C300.669349,16.2604138 301.244424,19.830069 301.244424,23.8411034 C301.244424,27.2535172 300.856455,30.2907586 300.064007,32.928 C299.27156,35.5817931 298.239728,37.7390345 297.007032,39.4686897 C295.760578,41.2093793 294.395808,42.5638621 292.912721,43.5597241 C291.448895,44.5528276 289.646628,45.2976552 287.555447,45.8107586 C285.464267,46.3211034 283.053907,46.585931 280.338124,46.585931 L264.139731,46.585931 Z" id="Fill-90" fill="#F8B133"></path>
                    <path d="M310.634098,24.4121379 C310.634098,29.6866207 312.097924,33.8466207 314.989806,36.8811034 C317.911956,39.910069 321.55226,41.4162759 325.938236,41.4162759 C330.401255,41.4162759 334.080081,39.9017931 336.963709,36.8286897 C339.850088,33.7666207 341.297405,29.4245517 341.297405,23.7804138 C341.297405,20.2217931 340.667299,17.1238621 339.434603,14.4728276 C338.193653,11.808 336.407895,9.74455172 334.036056,8.29351724 C331.644957,6.83696552 328.989708,6.10041379 326.029037,6.10041379 C321.813658,6.10041379 318.211875,7.50731034 315.182415,10.3183448 C312.163962,13.1486897 310.634098,17.830069 310.634098,24.4121379 M304.503638,24.310069 C304.503638,17.0328276 306.498514,11.3528276 310.49652,7.24524138 C314.494527,3.12937931 319.667447,1.08248276 326.012528,1.08248276 C330.123348,1.08248276 333.873715,2.0342069 337.189336,3.97351724 C340.521467,5.90731034 343.069405,8.59696552 344.822144,12.0452414 C346.541865,15.5017931 347.433368,19.4245517 347.433368,23.8135172 C347.433368,28.2521379 346.514349,32.2217931 344.687318,35.7252414 C342.843777,39.2397241 340.235305,41.8962759 336.87841,43.6866207 C333.491249,45.4769655 329.864702,46.3955862 325.968503,46.3955862 C321.755875,46.3955862 317.955981,45.3969655 314.637608,43.408 C311.308229,41.4162759 308.7768,38.6990345 307.081843,35.2452414 C305.342862,31.8107586 304.503638,28.1583448 304.503638,24.310069" id="Fill-91" fill="#F8B133"></path>
                </g>
            </g>
        </g>
    </g>
</svg>